<?xml version="1.0" encoding="utf-8"?>
<!-- Generator: Adobe Illustrator 19.2.1, SVG Export Plug-In . SVG Version: 6.00 Build 0)  -->
<svg version="1.1" id="Layer_1" xmlns="http://www.w3.org/2000/svg" xmlns:xlink="http://www.w3.org/1999/xlink" x="0px" y="0px"
	 viewBox="33.1 1517.7 1366.9 355" style="enable-background:new 33.1 1517.7 1366.9 355;" xml:space="preserve">
<style type="text/css">
	.st0{fill:#2C9951;}
	.st1{fill:url(#SVGID_1_);}
	.st2{fill:url(#SVGID_2_);}
</style>
<g>
	<path d="M1230,1676.2v8.5c-5.4-6.8-14.3-10.4-25.3-10.4c-20.7,0-34.6,16-34.6,39.5c0,24.4,13.6,39.5,35.6,39.5
		c9.7,0,18.7-3.9,24.4-10.4v5.6c0,18.8-8,28-24.6,28c-11.2,0-19.2-2.7-23.9-5.1l-1.9-0.8v13.1l0.8,0.3c5.1,2,13.4,4.6,25.6,4.6
		c24.4,0,38.4-14.9,38.4-41.1V1676H1230V1676.2z M1206.2,1741.2c-19.2,0-20.7-20.9-20.7-27.3c0-6.4,1.5-27.3,20.7-27.3
		c15.6,0,23.8,13.7,23.8,27.3C1230,1727.5,1221.8,1741.2,1206.2,1741.2z"/>
	<path d="M1325.5,1712.9c0-24.9-11.7-38.5-33.1-38.5c-10.9,0-19.9,3.9-26.3,11c-6.3,7.1-9.7,17-9.7,28.3c0,23.9,14.6,39.5,37.3,39.5
		c13.7,0,20.4-2.7,25.5-5.1l0.7-0.3v-12.9l-1.9,1c-6.8,3.7-14.1,5.4-22.7,5.4c-16.3,0-22.2-13.2-23.4-21.9h53.5L1325.5,1712.9
		L1325.5,1712.9z M1272.2,1708c1.7-14.9,8.1-22.2,19.7-22.2c11.5,0,17.5,7.3,18.3,22.2H1272.2z"/>
	<path d="M1368,1706.6c-12.2-2.9-17.5-6.1-17.5-10.9c0-6.6,4.9-10,14.8-10c7.8,0,13.9,2.5,17.3,3.9c0.8,0.3,1.5,0.7,2.2,0.8l1,0.3
		l4.6-9.7l-1-0.5c-7.3-4.1-15.8-6.3-23.9-6.3c-14.4,0-28.8,7-28.8,22.7c0,14.9,12.7,18.3,26.3,22.1c10.5,2.7,15.3,4.9,15.3,11.7
		c0,8-8.3,10.7-15.4,10.7c-8.5,0-16.6-2.5-24.8-7.8l-1.9-1.2v13.9l0.7,0.3c8.1,4.4,17.3,6.4,27.3,6.4c13.2,0,28.8-6.3,28.8-24.1
		C1392.6,1715.1,1382.7,1709.8,1368,1706.6z"/>
</g>
<path d="M608.1,1674.4c-10,0-19.2,4.2-24.9,11.4c-1.7-7.8-7.5-9.5-12.2-9.5c-2.7,0-5.6,0.8-8.8,2.2v10.2c1.2-0.7,2.5-1.2,4.1-1.2
	c1.7,0,3.1,0.3,3.1,4.8v93.3h14.6v-42.6c5.4,6.8,13.9,10.4,25.5,10.4c19.9,0,33.6-16.3,33.6-39.5
	C643,1689.5,629.6,1674.4,608.1,1674.4z M606.7,1741.2c-15.8,0-22.9-14.3-22.9-27.3c0-13.6,8-27.3,23.2-27.3
	c18.8,0,20.4,20.9,20.4,27.3C627.4,1727,622,1741.2,606.7,1741.2z"/>
<path d="M920,1733.2l-0.2,0.2c-6.8,3.6-15.1,7.3-28.5,7.3c-22.7,0-38.7-18.7-38.7-45.6c0-27.5,15.3-45.8,38.2-45.8
	c11,0,18.5,2.5,25.8,5.4l1.2,0.5l4.8-12l-1.2-0.5c-7.1-3.1-17.3-6.6-31.6-6.6c-15.6,0-29,5.8-38.9,16.5
	c-9.8,10.7-14.9,25.5-14.9,42.6c0,35.3,21.6,59.1,53.5,59.1c11.9,0,22.1-2.2,30.5-6.4L920,1733.2L920,1733.2z"/>
<path d="M811.9,1738.8c-1.4,1-3.9,2.2-5.3,2.2c-1.2,0-1.7-0.2-2-0.5c-0.5-0.5-1-2-0.8-4.1v-33.9c0.2-8.8-2-15.8-6.8-20.7
	c-4.9-4.9-12-7.5-21.4-7.5c-10.7,0-18.5,5.6-23.1,11.7c-1-4.9-3.6-9.8-11.7-9.8c-3.1,0-6.4,1-9.8,2.7v10.4c1.4-0.8,3.2-1.9,5.3-1.9
	c1.7,0,3.1,0.3,3.1,4.8v59.2h14.4v-36.7c0-6.6,1.5-28,20.7-28c4.4,0,7.8,1.2,10.2,3.7c2.9,3.1,4.4,7.8,4.4,14.3v32.2
	c-0.2,5.9,1,9.8,3.6,12.4c2.2,2.2,5.3,3.2,9.3,3.2c3.4,0,6.8-0.8,10.2-2.5v-11.2H811.9L811.9,1738.8z"/>
<path d="M1043.2,1738.3l-0.3-0.5l-1,0.8c-1.4,1-4.1,2.2-5.4,2.2c-2,0-2.9,0-2.9-4.6V1643c0-8.7-4.6-13.6-12.7-13.6
	c-3.4,0-7.6,1.4-11.7,3.6v10.4l0.2,0.2l1-0.8c1.4-1,3.4-2,5.4-2c1.7,0,3.1,0.3,3.1,4.8v91.3c0,7.6,1.5,15.6,12.7,15.6
	c3.9,0,8-1.2,11.7-3.4V1738.3L1043.2,1738.3z"/>
<path d="M540,1653c-9.3-11-23.2-17-39.7-17c-16.6,0-30.4,5.9-39.7,17c-8.8,10.5-13.6,25.1-13.6,42.1c0,17.1,4.8,31.7,13.6,42.1
	c9.3,11,23.2,17,39.7,17c16.6,0,30.4-5.9,39.7-17c8.8-10.5,13.6-24.9,13.6-42.1C553.6,1678.1,548.8,1663.5,540,1653z M500.3,1741.6
	c-22.9,0-36.7-17.3-36.7-46.3c0-29,13.7-46.3,36.7-46.3c22.9,0,36.7,17.3,36.7,46.3C537,1724.1,523.2,1741.6,500.3,1741.6z"/>
<path d="M721.8,1712.9c0-24.9-11.7-38.5-33.1-38.5c-10.7,0-19.9,3.9-26.3,11c-6.3,7.1-9.7,17-9.7,28.3c0,23.9,14.6,39.5,37.3,39.5
	c13.7,0,20.4-2.7,25.5-5.1l0.7-0.3v-12.9l-1.9,1c-6.8,3.7-14.1,5.4-22.7,5.4c-16.3,0-22.2-13.2-23.4-21.9h53.5v-6.6H721.8z
	 M668.3,1708c1.7-14.9,8.1-22.2,19.9-22.2c11.5,0,17.5,7.3,18.3,22.2H668.3z"/>
<path d="M965.9,1674.4c-22.6,0-37,15.4-37,39.5c0,23.9,14.6,39.5,37,39.5c22.6,0,37-15.4,37-39.5
	C1002.9,1689.8,988.5,1674.4,965.9,1674.4z M965.9,1741.6c-16.1,0-21.7-14.9-21.7-27.8c0-12.9,5.8-27.8,21.7-27.8
	c16.1,0,21.7,14.9,21.7,27.8C987.7,1726.6,982.1,1741.6,965.9,1741.6z"/>
<path d="M1081.5,1738.3l-0.3-0.5l-1,0.8c-1.4,1-4.1,2.2-5.4,2.2c-2,0-2.9,0-2.9-4.6V1643c0-8.7-4.6-13.6-12.7-13.6
	c-3.4,0-7.6,1.4-11.7,3.6v10.4l0.2,0.2l1-0.8c1.4-1,3.4-2,5.4-2c1.7,0,3.1,0.3,3.1,4.8v91.3c0,7.6,1.5,15.6,12.7,15.6
	c3.9,0,8-1.2,11.7-3.4V1738.3L1081.5,1738.3z"/>
<path d="M1159.1,1712.9c0-24.9-11.7-38.5-33.1-38.5c-10.7,0-19.9,3.9-26.3,11c-6.3,7.1-9.7,17-9.7,28.3c0,23.9,14.6,39.5,37.3,39.5
	c13.7,0,20.4-2.7,25.5-5.1l0.7-0.3v-12.9l-1.9,1c-6.8,3.7-14.1,5.4-22.7,5.4c-16.3,0-22.2-13.2-23.4-21.9h53.6V1712.9z M1105.8,1708
	c1.7-14.9,8.1-22.2,19.9-22.2c11.5,0,17.5,7.3,18.3,22.2H1105.8z"/>
<path class="st0" d="M119.7,1792.1c-35.5-10.9-65.3-35-83.8-66.4c13.4,77,76.5,137.1,155.3,145.8
	C158.4,1854.9,132.7,1826.6,119.7,1792.1z"/>
<path class="st0" d="M301.2,1598.3c35.5,11,65.3,35,83.8,66.4c-13.2-77.2-76.5-137.3-155.3-145.8
	C262.6,1535.4,288.2,1563.7,301.2,1598.3z"/>
<linearGradient id="SVGID_1_" gradientUnits="userSpaceOnUse" x1="-210.612" y1="2033.3612" x2="-52.5147" y2="2033.3612" gradientTransform="matrix(1.697 0 0 1.697 390.5296 -1795.6925)">
	<stop  offset="9.815950e-02" style="stop-color:#1CB2C3"/>
	<stop  offset="0.2386" style="stop-color:#49B6AC"/>
	<stop  offset="0.4649" style="stop-color:#6CBC8B"/>
	<stop  offset="0.6601" style="stop-color:#80C26E"/>
	<stop  offset="0.8142" style="stop-color:#8BC65A"/>
	<stop  offset="0.908" style="stop-color:#8FC853"/>
</linearGradient>
<path class="st1" d="M119.7,1792.1c-6.3-16.3-9.7-34.1-9.7-52.6c0-81.6,66.2-147.8,147.8-147.8c15.1,0,29.9,2.2,43.6,6.4
	c-13.1-34.4-38.9-62.8-71.4-79.4c-6.3-0.7-12.7-1-19.3-1c-98.1,0.2-177.5,79.4-177.5,177.5c0,10.4,0.8,20.7,2.5,30.5
	C54.3,1757.2,84,1781.1,119.7,1792.1z"/>
<linearGradient id="SVGID_2_" gradientUnits="userSpaceOnUse" x1="-130.7827" y1="2153.9033" x2="-7.586" y2="2030.7067" gradientTransform="matrix(1.697 0 0 1.697 390.5296 -1795.6925)">
	<stop  offset="0" style="stop-color:#8FC853"/>
	<stop  offset="0.3912" style="stop-color:#6EBD88"/>
	<stop  offset="0.908" style="stop-color:#1CB2C3"/>
</linearGradient>
<path class="st2" d="M387.8,1695.2c0-10.4-0.8-20.5-2.5-30.5c-18.5-31.4-48.4-55.5-83.8-66.4c6.3,16.3,9.7,34.1,9.7,52.6
	c0,81.6-66.2,147.8-147.8,147.8c-15.1,0-29.9-2.2-43.6-6.4c13.1,34.4,38.9,62.8,71.4,79.4c6.4,0.7,12.9,1,19.3,1
	C308.4,1872.4,387.8,1793.1,387.8,1695.2z"/>
</svg>
